# https://github.com/mikedh/trimesh
v 0.00000000 0.00000000 0.00000000
v 0.02450000 0.00000000 0.00000000
v 0.03078300 0.00000000 0.00350000
v 0.03310000 0.00000000 0.01100000
v 0.03310000 0.00000000 0.10036800
v 0.02850000 0.00000000 0.10878720
v 0.02700000 0.00000000 0.11440000
v 0.02700000 0.00000000 0.12240000
v 0.02350000 0.00000000 0.12240000
v 0.02350000 0.00000000 0.11790000
v 0.00000000 0.00000000 0.11790000
v 0.02444754 0.00160238 0.00000000
v 0.03071709 0.00201330 0.00350000
v 0.03302913 0.00216484 0.01100000
v 0.03302913 0.00216484 0.10036800
v 0.02843898 0.00186399 0.10878720
v 0.02694219 0.00176588 0.11440000
v 0.02694219 0.00176588 0.12240000
v 0.02344968 0.00153697 0.12240000
v 0.02344968 0.00153697 0.11790000
v 0.02429040 0.00319789 0.00000000
v 0.03051965 0.00401799 0.00350000
v 0.03281682 0.00432042 0.01100000
v 0.03281682 0.00432042 0.10036800
v 0.02825618 0.00372000 0.10878720
v 0.02676901 0.00352421 0.11440000
v 0.02676901 0.00352421 0.12240000
v 0.02329895 0.00306737 0.12240000
v 0.02329895 0.00306737 0.11790000
v 0.02402924 0.00477971 0.00000000
v 0.03019151 0.00600547 0.00350000
v 0.03246399 0.00645749 0.01100000
v 0.03246399 0.00645749 0.10036800
v 0.02795238 0.00556007 0.10878720
v 0.02648120 0.00526744 0.11440000
v 0.02648120 0.00526744 0.12240000
v 0.02304845 0.00458462 0.12240000
v 0.02304845 0.00458462 0.11790000
v 0.02366518 0.00634107 0.00000000
v 0.02973409 0.00796723 0.00350000
v 0.03197214 0.00856691 0.01100000
v 0.03197214 0.00856691 0.10036800
v 0.02752889 0.00737634 0.10878720
v 0.02608000 0.00698811 0.11440000
v 0.02608000 0.00698811 0.12240000
v 0.02269926 0.00608225 0.12240000
v 0.02269926 0.00608225 0.11790000
v 0.02319979 0.00787527 0.00000000
v 0.02914935 0.00989487 0.00350000
v 0.03134339 0.01063965 0.01100000
v 0.03134339 0.01063965 0.10036800
v 0.02698751 0.00916102 0.10878720
v 0.02556711 0.00867887 0.11440000
v 0.02556711 0.00867887 0.12240000
v 0.02225286 0.00755383 0.12240000
v 0.02225286 0.00755383 0.11790000
v 0.02263505 0.00937574 0.00000000
v 0.02843978 0.01178014 0.00350000
v 0.03058041 0.01266682 0.01100000
v 0.03058041 0.01266682 0.10036800
v 0.02633057 0.01090648 0.10878720
v 0.02494475 0.01033245 0.11440000
v 0.02494475 0.01033245 0.12240000
v 0.02171117 0.00899306 0.12240000
v 0.02171117 0.00899306 0.11790000
v 0.02197338 0.01083607 0.00000000
v 0.02760843 0.01361497 0.00350000
v 0.02968649 0.01463976 0.01100000
v 0.02968649 0.01463976 0.10036800
v 0.02556087 0.01260523 0.10878720
v 0.02421556 0.01194179 0.11440000
v 0.02421556 0.01194179 0.12240000
v 0.02107651 0.01039378 0.12240000
v 0.02107651 0.01039378 0.11790000
v 0.02121762 0.01225000 0.00000000
v 0.02665886 0.01539150 0.00350000
v 0.02866544 0.01655000 0.01100000
v 0.02866544 0.01655000 0.10036800
v 0.02468172 0.01425000 0.10878720
v 0.02338269 0.01350000 0.11440000
v 0.02338269 0.01350000 0.12240000
v 0.02035160 0.01175000 0.12240000
v 0.02035160 0.01175000 0.11790000
v 0.02037101 0.01361147 0.00000000
v 0.02559513 0.01710212 0.00350000
v 0.02752164 0.01838937 0.01100000
v 0.02752164 0.01838937 0.10036800
v 0.02369688 0.01583375 0.10878720
v 0.02244968 0.01500040 0.11440000
v 0.02244968 0.01500040 0.12240000
v 0.01953954 0.01305590 0.12240000
v 0.01953954 0.01305590 0.11790000
v 0.01943716 0.01491466 0.00000000
v 0.02442180 0.01873950 0.00350000
v 0.02626000 0.02015000 0.01100000
v 0.02626000 0.02015000 0.10036800
v 0.02261057 0.01734970 0.10878720
v 0.02142054 0.01643656 0.11440000
v 0.02142054 0.01643656 0.12240000
v 0.01864380 0.01430589 0.12240000
v 0.01864380 0.01430589 0.11790000
v 0.01842008 0.01615397 0.00000000
v 0.02314388 0.02029664 0.00350000
v 0.02488590 0.02182435 0.01100000
v 0.02488590 0.02182435 0.10036800
v 0.02142743 0.01879136 0.10878720
v 0.02029967 0.01780234 0.11440000
v 0.02029967 0.01780234 0.12240000
v 0.01766824 0.01549463 0.12240000
v 0.01766824 0.01549463 0.11790000
v 0.01732412 0.01732412 0.00000000
v 0.02176687 0.02176687 0.00350000
v 0.02340523 0.02340523 0.01100000
v 0.02340523 0.02340523 0.10036800
v 0.02015254 0.02015254 0.10878720
v 0.01909188 0.01909188 0.11440000
v 0.01909188 0.01909188 0.12240000
v 0.01661701 0.01661701 0.12240000
v 0.01661701 0.01661701 0.11790000
v 0.01615397 0.01842008 0.00000000
v 0.02029664 0.02314388 0.00350000
v 0.02182435 0.02488590 0.01100000
v 0.02182435 0.02488590 0.10036800
v 0.01879136 0.02142743 0.10878720
v 0.01780234 0.02029967 0.11440000
v 0.01780234 0.02029967 0.12240000
v 0.01549463 0.01766824 0.12240000
v 0.01549463 0.01766824 0.11790000
v 0.01491466 0.01943716 0.00000000
v 0.01873950 0.02442180 0.00350000
v 0.02015000 0.02626000 0.01100000
v 0.02015000 0.02626000 0.10036800
v 0.01734970 0.02261057 0.10878720
v 0.01643656 0.02142054 0.11440000
v 0.01643656 0.02142054 0.12240000
v 0.01430589 0.01864380 0.12240000
v 0.01430589 0.01864380 0.11790000
v 0.01361147 0.02037101 0.00000000
v 0.01710212 0.02559513 0.00350000
v 0.01838937 0.02752164 0.01100000
v 0.01838937 0.02752164 0.10036800
v 0.01583375 0.02369688 0.10878720
v 0.01500040 0.02244968 0.11440000
v 0.01500040 0.02244968 0.12240000
v 0.01305590 0.01953954 0.12240000
v 0.01305590 0.01953954 0.11790000
v 0.01225000 0.02121762 0.00000000
v 0.01539150 0.02665886 0.00350000
v 0.01655000 0.02866544 0.01100000
v 0.01655000 0.02866544 0.10036800
v 0.01425000 0.02468172 0.10878720
v 0.01350000 0.02338269 0.11440000
v 0.01350000 0.02338269 0.12240000
v 0.01175000 0.02035160 0.12240000
v 0.01175000 0.02035160 0.11790000
v 0.01083607 0.02197338 0.00000000
v 0.01361497 0.02760843 0.00350000
v 0.01463976 0.02968649 0.01100000
v 0.01463976 0.02968649 0.10036800
v 0.01260523 0.02556087 0.10878720
v 0.01194179 0.02421556 0.11440000
v 0.01194179 0.02421556 0.12240000
v 0.01039378 0.02107651 0.12240000
v 0.01039378 0.02107651 0.11790000
v 0.00937574 0.02263505 0.00000000
v 0.01178014 0.02843978 0.00350000
v 0.01266682 0.03058041 0.01100000
v 0.01266682 0.03058041 0.10036800
v 0.01090648 0.02633057 0.10878720
v 0.01033245 0.02494475 0.11440000
v 0.01033245 0.02494475 0.12240000
v 0.00899306 0.02171117 0.12240000
v 0.00899306 0.02171117 0.11790000
v 0.00787527 0.02319979 0.00000000
v 0.00989487 0.02914935 0.00350000
v 0.01063965 0.03134339 0.01100000
v 0.01063965 0.03134339 0.10036800
v 0.00916102 0.02698751 0.10878720
v 0.00867887 0.02556711 0.11440000
v 0.00867887 0.02556711 0.12240000
v 0.00755383 0.02225286 0.12240000
v 0.00755383 0.02225286 0.11790000
v 0.00634107 0.02366518 0.00000000
v 0.00796723 0.02973409 0.00350000
v 0.00856691 0.03197214 0.01100000
v 0.00856691 0.03197214 0.10036800
v 0.00737634 0.02752889 0.10878720
v 0.00698811 0.02608000 0.11440000
v 0.00698811 0.02608000 0.12240000
v 0.00608225 0.02269926 0.12240000
v 0.00608225 0.02269926 0.11790000
v 0.00477971 0.02402924 0.00000000
v 0.00600547 0.03019151 0.00350000
v 0.00645749 0.03246399 0.01100000
v 0.00645749 0.03246399 0.10036800
v 0.00556007 0.02795238 0.10878720
v 0.00526744 0.02648120 0.11440000
v 0.00526744 0.02648120 0.12240000
v 0.00458462 0.02304845 0.12240000
v 0.00458462 0.02304845 0.11790000
v 0.00319789 0.02429040 0.00000000
v 0.00401799 0.03051965 0.00350000
v 0.00432042 0.03281682 0.01100000
v 0.00432042 0.03281682 0.10036800
v 0.00372000 0.02825618 0.10878720
v 0.00352421 0.02676901 0.11440000
v 0.00352421 0.02676901 0.12240000
v 0.00306737 0.02329895 0.12240000
v 0.00306737 0.02329895 0.11790000
v 0.00160238 0.02444754 0.00000000
v 0.00201330 0.03071709 0.00350000
v 0.00216484 0.03302913 0.01100000
v 0.00216484 0.03302913 0.10036800
v 0.00186399 0.02843898 0.10878720
v 0.00176588 0.02694219 0.11440000
v 0.00176588 0.02694219 0.12240000
v 0.00153697 0.02344968 0.12240000
v 0.00153697 0.02344968 0.11790000
v 0.00000000 0.02450000 0.00000000
v 0.00000000 0.03078300 0.00350000
v 0.00000000 0.03310000 0.01100000
v 0.00000000 0.03310000 0.10036800
v 0.00000000 0.02850000 0.10878720
v 0.00000000 0.02700000 0.11440000
v 0.00000000 0.02700000 0.12240000
v 0.00000000 0.02350000 0.12240000
v 0.00000000 0.02350000 0.11790000
v -0.00160238 0.02444754 0.00000000
v -0.00201330 0.03071709 0.00350000
v -0.00216484 0.03302913 0.01100000
v -0.00216484 0.03302913 0.10036800
v -0.00186399 0.02843898 0.10878720
v -0.00176588 0.02694219 0.11440000
v -0.00176588 0.02694219 0.12240000
v -0.00153697 0.02344968 0.12240000
v -0.00153697 0.02344968 0.11790000
v -0.00319789 0.02429040 0.00000000
v -0.00401799 0.03051965 0.00350000
v -0.00432042 0.03281682 0.01100000
v -0.00432042 0.03281682 0.10036800
v -0.00372000 0.02825618 0.10878720
v -0.00352421 0.02676901 0.11440000
v -0.00352421 0.02676901 0.12240000
v -0.00306737 0.02329895 0.12240000
v -0.00306737 0.02329895 0.11790000
v -0.00477971 0.02402924 0.00000000
v -0.00600547 0.03019151 0.00350000
v -0.00645749 0.03246399 0.01100000
v -0.00645749 0.03246399 0.10036800
v -0.00556007 0.02795238 0.10878720
v -0.00526744 0.02648120 0.11440000
v -0.00526744 0.02648120 0.12240000
v -0.00458462 0.02304845 0.12240000
v -0.00458462 0.02304845 0.11790000
v -0.00634107 0.02366518 0.00000000
v -0.00796723 0.02973409 0.00350000
v -0.00856691 0.03197214 0.01100000
v -0.00856691 0.03197214 0.10036800
v -0.00737634 0.02752889 0.10878720
v -0.00698811 0.02608000 0.11440000
v -0.00698811 0.02608000 0.12240000
v -0.00608225 0.02269926 0.12240000
v -0.00608225 0.02269926 0.11790000
v -0.00787527 0.02319979 0.00000000
v -0.00989487 0.02914935 0.00350000
v -0.01063965 0.03134339 0.01100000
v -0.01063965 0.03134339 0.10036800
v -0.00916102 0.02698751 0.10878720
v -0.00867887 0.02556711 0.11440000
v -0.00867887 0.02556711 0.12240000
v -0.00755383 0.02225286 0.12240000
v -0.00755383 0.02225286 0.11790000
v -0.00937574 0.02263505 0.00000000
v -0.01178014 0.02843978 0.00350000
v -0.01266682 0.03058041 0.01100000
v -0.01266682 0.03058041 0.10036800
v -0.01090648 0.02633057 0.10878720
v -0.01033245 0.02494475 0.11440000
v -0.01033245 0.02494475 0.12240000
v -0.00899306 0.02171117 0.12240000
v -0.00899306 0.02171117 0.11790000
v -0.01083607 0.02197338 0.00000000
v -0.01361497 0.02760843 0.00350000
v -0.01463976 0.02968649 0.01100000
v -0.01463976 0.02968649 0.10036800
v -0.01260523 0.02556087 0.10878720
v -0.01194179 0.02421556 0.11440000
v -0.01194179 0.02421556 0.12240000
v -0.01039378 0.02107651 0.12240000
v -0.01039378 0.02107651 0.11790000
v -0.01225000 0.02121762 0.00000000
v -0.01539150 0.02665886 0.00350000
v -0.01655000 0.02866544 0.01100000
v -0.01655000 0.02866544 0.10036800
v -0.01425000 0.02468172 0.10878720
v -0.01350000 0.02338269 0.11440000
v -0.01350000 0.02338269 0.12240000
v -0.01175000 0.02035160 0.12240000
v -0.01175000 0.02035160 0.11790000
v -0.01361147 0.02037101 0.00000000
v -0.01710212 0.02559513 0.00350000
v -0.01838937 0.02752164 0.01100000
v -0.01838937 0.02752164 0.10036800
v -0.01583375 0.02369688 0.10878720
v -0.01500040 0.02244968 0.11440000
v -0.01500040 0.02244968 0.12240000
v -0.01305590 0.01953954 0.12240000
v -0.01305590 0.01953954 0.11790000
v -0.01491466 0.01943716 0.00000000
v -0.01873950 0.02442180 0.00350000
v -0.02015000 0.02626000 0.01100000
v -0.02015000 0.02626000 0.10036800
v -0.01734970 0.02261057 0.10878720
v -0.01643656 0.02142054 0.11440000
v -0.01643656 0.02142054 0.12240000
v -0.01430589 0.01864380 0.12240000
v -0.01430589 0.01864380 0.11790000
v -0.01615397 0.01842008 0.00000000
v -0.02029664 0.02314388 0.00350000
v -0.02182435 0.02488590 0.01100000
v -0.02182435 0.02488590 0.10036800
v -0.01879136 0.02142743 0.10878720
v -0.01780234 0.02029967 0.11440000
v -0.01780234 0.02029967 0.12240000
v -0.01549463 0.01766824 0.12240000
v -0.01549463 0.01766824 0.11790000
v -0.01732412 0.01732412 0.00000000
v -0.02176687 0.02176687 0.00350000
v -0.02340523 0.02340523 0.01100000
v -0.02340523 0.02340523 0.10036800
v -0.02015254 0.02015254 0.10878720
v -0.01909188 0.01909188 0.11440000
v -0.01909188 0.01909188 0.12240000
v -0.01661701 0.01661701 0.12240000
v -0.01661701 0.01661701 0.11790000
v -0.01842008 0.01615397 0.00000000
v -0.02314388 0.02029664 0.00350000
v -0.02488590 0.02182435 0.01100000
v -0.02488590 0.02182435 0.10036800
v -0.02142743 0.01879136 0.10878720
v -0.02029967 0.01780234 0.11440000
v -0.02029967 0.01780234 0.12240000
v -0.01766824 0.01549463 0.12240000
v -0.01766824 0.01549463 0.11790000
v -0.01943716 0.01491466 0.00000000
v -0.02442180 0.01873950 0.00350000
v -0.02626000 0.02015000 0.01100000
v -0.02626000 0.02015000 0.10036800
v -0.02261057 0.01734970 0.10878720
v -0.02142054 0.01643656 0.11440000
v -0.02142054 0.01643656 0.12240000
v -0.01864380 0.01430589 0.12240000
v -0.01864380 0.01430589 0.11790000
v -0.02037101 0.01361147 0.00000000
v -0.02559513 0.01710212 0.00350000
v -0.02752164 0.01838937 0.01100000
v -0.02752164 0.01838937 0.10036800
v -0.02369688 0.01583375 0.10878720
v -0.02244968 0.01500040 0.11440000
v -0.02244968 0.01500040 0.12240000
v -0.01953954 0.01305590 0.12240000
v -0.01953954 0.01305590 0.11790000
v -0.02121762 0.01225000 0.00000000
v -0.02665886 0.01539150 0.00350000
v -0.02866544 0.01655000 0.01100000
v -0.02866544 0.01655000 0.10036800
v -0.02468172 0.01425000 0.10878720
v -0.02338269 0.01350000 0.11440000
v -0.02338269 0.01350000 0.12240000
v -0.02035160 0.01175000 0.12240000
v -0.02035160 0.01175000 0.11790000
v -0.02197338 0.01083607 0.00000000
v -0.02760843 0.01361497 0.00350000
v -0.02968649 0.01463976 0.01100000
v -0.02968649 0.01463976 0.10036800
v -0.02556087 0.01260523 0.10878720
v -0.02421556 0.01194179 0.11440000
v -0.02421556 0.01194179 0.12240000
v -0.02107651 0.01039378 0.12240000
v -0.02107651 0.01039378 0.11790000
v -0.02263505 0.00937574 0.00000000
v -0.02843978 0.01178014 0.00350000
v -0.03058041 0.01266682 0.01100000
v -0.03058041 0.01266682 0.10036800
v -0.02633057 0.01090648 0.10878720
v -0.02494475 0.01033245 0.11440000
v -0.02494475 0.01033245 0.12240000
v -0.02171117 0.00899306 0.12240000
v -0.02171117 0.00899306 0.11790000
v -0.02319979 0.00787527 0.00000000
v -0.02914935 0.00989487 0.00350000
v -0.03134339 0.01063965 0.01100000
v -0.03134339 0.01063965 0.10036800
v -0.02698751 0.00916102 0.10878720
v -0.02556711 0.00867887 0.11440000
v -0.02556711 0.00867887 0.12240000
v -0.02225286 0.00755383 0.12240000
v -0.02225286 0.00755383 0.11790000
v -0.02366518 0.00634107 0.00000000
v -0.02973409 0.00796723 0.00350000
v -0.03197214 0.00856691 0.01100000
v -0.03197214 0.00856691 0.10036800
v -0.02752889 0.00737634 0.10878720
v -0.02608000 0.00698811 0.11440000
v -0.02608000 0.00698811 0.12240000
v -0.02269926 0.00608225 0.12240000
v -0.02269926 0.00608225 0.11790000
v -0.02402924 0.00477971 0.00000000
v -0.03019151 0.00600547 0.00350000
v -0.03246399 0.00645749 0.01100000
v -0.03246399 0.00645749 0.10036800
v -0.02795238 0.00556007 0.10878720
v -0.02648120 0.00526744 0.11440000
v -0.02648120 0.00526744 0.12240000
v -0.02304845 0.00458462 0.12240000
v -0.02304845 0.00458462 0.11790000
v -0.02429040 0.00319789 0.00000000
v -0.03051965 0.00401799 0.00350000
v -0.03281682 0.00432042 0.01100000
v -0.03281682 0.00432042 0.10036800
v -0.02825618 0.00372000 0.10878720
v -0.02676901 0.00352421 0.11440000
v -0.02676901 0.00352421 0.12240000
v -0.02329895 0.00306737 0.12240000
v -0.02329895 0.00306737 0.11790000
v -0.02444754 0.00160238 0.00000000
v -0.03071709 0.00201330 0.00350000
v -0.03302913 0.00216484 0.01100000
v -0.03302913 0.00216484 0.10036800
v -0.02843898 0.00186399 0.10878720
v -0.02694219 0.00176588 0.11440000
v -0.02694219 0.00176588 0.12240000
v -0.02344968 0.00153697 0.12240000
v -0.02344968 0.00153697 0.11790000
v -0.02450000 0.00000000 0.00000000
v -0.03078300 0.00000000 0.00350000
v -0.03310000 0.00000000 0.01100000
v -0.03310000 0.00000000 0.10036800
v -0.02850000 0.00000000 0.10878720
v -0.02700000 0.00000000 0.11440000
v -0.02700000 0.00000000 0.12240000
v -0.02350000 0.00000000 0.12240000
v -0.02350000 0.00000000 0.11790000
v -0.02444754 -0.00160238 0.00000000
v -0.03071709 -0.00201330 0.00350000
v -0.03302913 -0.00216484 0.01100000
v -0.03302913 -0.00216484 0.10036800
v -0.02843898 -0.00186399 0.10878720
v -0.02694219 -0.00176588 0.11440000
v -0.02694219 -0.00176588 0.12240000
v -0.02344968 -0.00153697 0.12240000
v -0.02344968 -0.00153697 0.11790000
v -0.02429040 -0.00319789 0.00000000
v -0.03051965 -0.00401799 0.00350000
v -0.03281682 -0.00432042 0.01100000
v -0.03281682 -0.00432042 0.10036800
v -0.02825618 -0.00372000 0.10878720
v -0.02676901 -0.00352421 0.11440000
v -0.02676901 -0.00352421 0.12240000
v -0.02329895 -0.00306737 0.12240000
v -0.02329895 -0.00306737 0.11790000
v -0.02402924 -0.00477971 0.00000000
v -0.03019151 -0.00600547 0.00350000
v -0.03246399 -0.00645749 0.01100000
v -0.03246399 -0.00645749 0.10036800
v -0.02795238 -0.00556007 0.10878720
v -0.02648120 -0.00526744 0.11440000
v -0.02648120 -0.00526744 0.12240000
v -0.02304845 -0.00458462 0.12240000
v -0.02304845 -0.00458462 0.11790000
v -0.02366518 -0.00634107 0.00000000
v -0.02973409 -0.00796723 0.00350000
v -0.03197214 -0.00856691 0.01100000
v -0.03197214 -0.00856691 0.10036800
v -0.02752889 -0.00737634 0.10878720
v -0.02608000 -0.00698811 0.11440000
v -0.02608000 -0.00698811 0.12240000
v -0.02269926 -0.00608225 0.12240000
v -0.02269926 -0.00608225 0.11790000
v -0.02319979 -0.00787527 0.00000000
v -0.02914935 -0.00989487 0.00350000
v -0.03134339 -0.01063965 0.01100000
v -0.03134339 -0.01063965 0.10036800
v -0.02698751 -0.00916102 0.10878720
v -0.02556711 -0.00867887 0.11440000
v -0.02556711 -0.00867887 0.12240000
v -0.02225286 -0.00755383 0.12240000
v -0.02225286 -0.00755383 0.11790000
v -0.02263505 -0.00937574 0.00000000
v -0.02843978 -0.01178014 0.00350000
v -0.03058041 -0.01266682 0.01100000
v -0.03058041 -0.01266682 0.10036800
v -0.02633057 -0.01090648 0.10878720
v -0.02494475 -0.01033245 0.11440000
v -0.02494475 -0.01033245 0.12240000
v -0.02171117 -0.00899306 0.12240000
v -0.02171117 -0.00899306 0.11790000
v -0.02197338 -0.01083607 0.00000000
v -0.02760843 -0.01361497 0.00350000
v -0.02968649 -0.01463976 0.01100000
v -0.02968649 -0.01463976 0.10036800
v -0.02556087 -0.01260523 0.10878720
v -0.02421556 -0.01194179 0.11440000
v -0.02421556 -0.01194179 0.12240000
v -0.02107651 -0.01039378 0.12240000
v -0.02107651 -0.01039378 0.11790000
v -0.02121762 -0.01225000 0.00000000
v -0.02665886 -0.01539150 0.00350000
v -0.02866544 -0.01655000 0.01100000
v -0.02866544 -0.01655000 0.10036800
v -0.02468172 -0.01425000 0.10878720
v -0.02338269 -0.01350000 0.11440000
v -0.02338269 -0.01350000 0.12240000
v -0.02035160 -0.01175000 0.12240000
v -0.02035160 -0.01175000 0.11790000
v -0.02037101 -0.01361147 0.00000000
v -0.02559513 -0.01710212 0.00350000
v -0.02752164 -0.01838937 0.01100000
v -0.02752164 -0.01838937 0.10036800
v -0.02369688 -0.01583375 0.10878720
v -0.02244968 -0.01500040 0.11440000
v -0.02244968 -0.01500040 0.12240000
v -0.01953954 -0.01305590 0.12240000
v -0.01953954 -0.01305590 0.11790000
v -0.01943716 -0.01491466 0.00000000
v -0.02442180 -0.01873950 0.00350000
v -0.02626000 -0.02015000 0.01100000
v -0.02626000 -0.02015000 0.10036800
v -0.02261057 -0.01734970 0.10878720
v -0.02142054 -0.01643656 0.11440000
v -0.02142054 -0.01643656 0.12240000
v -0.01864380 -0.01430589 0.12240000
v -0.01864380 -0.01430589 0.11790000
v -0.01842008 -0.01615397 0.00000000
v -0.02314388 -0.02029664 0.00350000
v -0.02488590 -0.02182435 0.01100000
v -0.02488590 -0.02182435 0.10036800
v -0.02142743 -0.01879136 0.10878720
v -0.02029967 -0.01780234 0.11440000
v -0.02029967 -0.01780234 0.12240000
v -0.01766824 -0.01549463 0.12240000
v -0.01766824 -0.01549463 0.11790000
v -0.01732412 -0.01732412 0.00000000
v -0.02176687 -0.02176687 0.00350000
v -0.02340523 -0.02340523 0.01100000
v -0.02340523 -0.02340523 0.10036800
v -0.02015254 -0.02015254 0.10878720
v -0.01909188 -0.01909188 0.11440000
v -0.01909188 -0.01909188 0.12240000
v -0.01661701 -0.01661701 0.12240000
v -0.01661701 -0.01661701 0.11790000
v -0.01615397 -0.01842008 0.00000000
v -0.02029664 -0.02314388 0.00350000
v -0.02182435 -0.02488590 0.01100000
v -0.02182435 -0.02488590 0.10036800
v -0.01879136 -0.02142743 0.10878720
v -0.01780234 -0.02029967 0.11440000
v -0.01780234 -0.02029967 0.12240000
v -0.01549463 -0.01766824 0.12240000
v -0.01549463 -0.01766824 0.11790000
v -0.01491466 -0.01943716 0.00000000
v -0.01873950 -0.02442180 0.00350000
v -0.02015000 -0.02626000 0.01100000
v -0.02015000 -0.02626000 0.10036800
v -0.01734970 -0.02261057 0.10878720
v -0.01643656 -0.02142054 0.11440000
v -0.01643656 -0.02142054 0.12240000
v -0.01430589 -0.01864380 0.12240000
v -0.01430589 -0.01864380 0.11790000
v -0.01361147 -0.02037101 0.00000000
v -0.01710212 -0.02559513 0.00350000
v -0.01838937 -0.02752164 0.01100000
v -0.01838937 -0.02752164 0.10036800
v -0.01583375 -0.02369688 0.10878720
v -0.01500040 -0.02244968 0.11440000
v -0.01500040 -0.02244968 0.12240000
v -0.01305590 -0.01953954 0.12240000
v -0.01305590 -0.01953954 0.11790000
v -0.01225000 -0.02121762 0.00000000
v -0.01539150 -0.02665886 0.00350000
v -0.01655000 -0.02866544 0.01100000
v -0.01655000 -0.02866544 0.10036800
v -0.01425000 -0.02468172 0.10878720
v -0.01350000 -0.02338269 0.11440000
v -0.01350000 -0.02338269 0.12240000
v -0.01175000 -0.02035160 0.12240000
v -0.01175000 -0.02035160 0.11790000
v -0.01083607 -0.02197338 0.00000000
v -0.01361497 -0.02760843 0.00350000
v -0.01463976 -0.02968649 0.01100000
v -0.01463976 -0.02968649 0.10036800
v -0.01260523 -0.02556087 0.10878720
v -0.01194179 -0.02421556 0.11440000
v -0.01194179 -0.02421556 0.12240000
v -0.01039378 -0.02107651 0.12240000
v -0.01039378 -0.02107651 0.11790000
v -0.00937574 -0.02263505 0.00000000
v -0.01178014 -0.02843978 0.00350000
v -0.01266682 -0.03058041 0.01100000
v -0.01266682 -0.03058041 0.10036800
v -0.01090648 -0.02633057 0.10878720
v -0.01033245 -0.02494475 0.11440000
v -0.01033245 -0.02494475 0.12240000
v -0.00899306 -0.02171117 0.12240000
v -0.00899306 -0.02171117 0.11790000
v -0.00787527 -0.02319979 0.00000000
v -0.00989487 -0.02914935 0.00350000
v -0.01063965 -0.03134339 0.01100000
v -0.01063965 -0.03134339 0.10036800
v -0.00916102 -0.02698751 0.10878720
v -0.00867887 -0.02556711 0.11440000
v -0.00867887 -0.02556711 0.12240000
v -0.00755383 -0.02225286 0.12240000
v -0.00755383 -0.02225286 0.11790000
v -0.00634107 -0.02366518 0.00000000
v -0.00796723 -0.02973409 0.00350000
v -0.00856691 -0.03197214 0.01100000
v -0.00856691 -0.03197214 0.10036800
v -0.00737634 -0.02752889 0.10878720
v -0.00698811 -0.02608000 0.11440000
v -0.00698811 -0.02608000 0.12240000
v -0.00608225 -0.02269926 0.12240000
v -0.00608225 -0.02269926 0.11790000
v -0.00477971 -0.02402924 0.00000000
v -0.00600547 -0.03019151 0.00350000
v -0.00645749 -0.03246399 0.01100000
v -0.00645749 -0.03246399 0.10036800
v -0.00556007 -0.02795238 0.10878720
v -0.00526744 -0.02648120 0.11440000
v -0.00526744 -0.02648120 0.12240000
v -0.00458462 -0.02304845 0.12240000
v -0.00458462 -0.02304845 0.11790000
v -0.00319789 -0.02429040 0.00000000
v -0.00401799 -0.03051965 0.00350000
v -0.00432042 -0.03281682 0.01100000
v -0.00432042 -0.03281682 0.10036800
v -0.00372000 -0.02825618 0.10878720
v -0.00352421 -0.02676901 0.11440000
v -0.00352421 -0.02676901 0.12240000
v -0.00306737 -0.02329895 0.12240000
v -0.00306737 -0.02329895 0.11790000
v -0.00160238 -0.02444754 0.00000000
v -0.00201330 -0.03071709 0.00350000
v -0.00216484 -0.03302913 0.01100000
v -0.00216484 -0.03302913 0.10036800
v -0.00186399 -0.02843898 0.10878720
v -0.00176588 -0.02694219 0.11440000
v -0.00176588 -0.02694219 0.12240000
v -0.00153697 -0.02344968 0.12240000
v -0.00153697 -0.02344968 0.11790000
v -0.00000000 -0.02450000 0.00000000
v -0.00000000 -0.03078300 0.00350000
v -0.00000000 -0.03310000 0.01100000
v -0.00000000 -0.03310000 0.10036800
v -0.00000000 -0.02850000 0.10878720
v -0.00000000 -0.02700000 0.11440000
v -0.00000000 -0.02700000 0.12240000
v -0.00000000 -0.02350000 0.12240000
v -0.00000000 -0.02350000 0.11790000
v 0.00160238 -0.02444754 0.00000000
v 0.00201330 -0.03071709 0.00350000
v 0.00216484 -0.03302913 0.01100000
v 0.00216484 -0.03302913 0.10036800
v 0.00186399 -0.02843898 0.10878720
v 0.00176588 -0.02694219 0.11440000
v 0.00176588 -0.02694219 0.12240000
v 0.00153697 -0.02344968 0.12240000
v 0.00153697 -0.02344968 0.11790000
v 0.00319789 -0.02429040 0.00000000
v 0.00401799 -0.03051965 0.00350000
v 0.00432042 -0.03281682 0.01100000
v 0.00432042 -0.03281682 0.10036800
v 0.00372000 -0.02825618 0.10878720
v 0.00352421 -0.02676901 0.11440000
v 0.00352421 -0.02676901 0.12240000
v 0.00306737 -0.02329895 0.12240000
v 0.00306737 -0.02329895 0.11790000
v 0.00477971 -0.02402924 0.00000000
v 0.00600547 -0.03019151 0.00350000
v 0.00645749 -0.03246399 0.01100000
v 0.00645749 -0.03246399 0.10036800
v 0.00556007 -0.02795238 0.10878720
v 0.00526744 -0.02648120 0.11440000
v 0.00526744 -0.02648120 0.12240000
v 0.00458462 -0.02304845 0.12240000
v 0.00458462 -0.02304845 0.11790000
v 0.00634107 -0.02366518 0.00000000
v 0.00796723 -0.02973409 0.00350000
v 0.00856691 -0.03197214 0.01100000
v 0.00856691 -0.03197214 0.10036800
v 0.00737634 -0.02752889 0.10878720
v 0.00698811 -0.02608000 0.11440000
v 0.00698811 -0.02608000 0.12240000
v 0.00608225 -0.02269926 0.12240000
v 0.00608225 -0.02269926 0.11790000
v 0.00787527 -0.02319979 0.00000000
v 0.00989487 -0.02914935 0.00350000
v 0.01063965 -0.03134339 0.01100000
v 0.01063965 -0.03134339 0.10036800
v 0.00916102 -0.02698751 0.10878720
v 0.00867887 -0.02556711 0.11440000
v 0.00867887 -0.02556711 0.12240000
v 0.00755383 -0.02225286 0.12240000
v 0.00755383 -0.02225286 0.11790000
v 0.00937574 -0.02263505 0.00000000
v 0.01178014 -0.02843978 0.00350000
v 0.01266682 -0.03058041 0.01100000
v 0.01266682 -0.03058041 0.10036800
v 0.01090648 -0.02633057 0.10878720
v 0.01033245 -0.02494475 0.11440000
v 0.01033245 -0.02494475 0.12240000
v 0.00899306 -0.02171117 0.12240000
v 0.00899306 -0.02171117 0.11790000
v 0.01083607 -0.02197338 0.00000000
v 0.01361497 -0.02760843 0.00350000
v 0.01463976 -0.02968649 0.01100000
v 0.01463976 -0.02968649 0.10036800
v 0.01260523 -0.02556087 0.10878720
v 0.01194179 -0.02421556 0.11440000
v 0.01194179 -0.02421556 0.12240000
v 0.01039378 -0.02107651 0.12240000
v 0.01039378 -0.02107651 0.11790000
v 0.01225000 -0.02121762 0.00000000
v 0.01539150 -0.02665886 0.00350000
v 0.01655000 -0.02866544 0.01100000
v 0.01655000 -0.02866544 0.10036800
v 0.01425000 -0.02468172 0.10878720
v 0.01350000 -0.02338269 0.11440000
v 0.01350000 -0.02338269 0.12240000
v 0.01175000 -0.02035160 0.12240000
v 0.01175000 -0.02035160 0.11790000
v 0.01361147 -0.02037101 0.00000000
v 0.01710212 -0.02559513 0.00350000
v 0.01838937 -0.02752164 0.01100000
v 0.01838937 -0.02752164 0.10036800
v 0.01583375 -0.02369688 0.10878720
v 0.01500040 -0.02244968 0.11440000
v 0.01500040 -0.02244968 0.12240000
v 0.01305590 -0.01953954 0.12240000
v 0.01305590 -0.01953954 0.11790000
v 0.01491466 -0.01943716 0.00000000
v 0.01873950 -0.02442180 0.00350000
v 0.02015000 -0.02626000 0.01100000
v 0.02015000 -0.02626000 0.10036800
v 0.01734970 -0.02261057 0.10878720
v 0.01643656 -0.02142054 0.11440000
v 0.01643656 -0.02142054 0.12240000
v 0.01430589 -0.01864380 0.12240000
v 0.01430589 -0.01864380 0.11790000
v 0.01615397 -0.01842008 0.00000000
v 0.02029664 -0.02314388 0.00350000
v 0.02182435 -0.02488590 0.01100000
v 0.02182435 -0.02488590 0.10036800
v 0.01879136 -0.02142743 0.10878720
v 0.01780234 -0.02029967 0.11440000
v 0.01780234 -0.02029967 0.12240000
v 0.01549463 -0.01766824 0.12240000
v 0.01549463 -0.01766824 0.11790000
v 0.01732412 -0.01732412 0.00000000
v 0.02176687 -0.02176687 0.00350000
v 0.02340523 -0.02340523 0.01100000
v 0.02340523 -0.02340523 0.10036800
v 0.02015254 -0.02015254 0.10878720
v 0.01909188 -0.01909188 0.11440000
v 0.01909188 -0.01909188 0.12240000
v 0.01661701 -0.01661701 0.12240000
v 0.01661701 -0.01661701 0.11790000
v 0.01842008 -0.01615397 0.00000000
v 0.02314388 -0.02029664 0.00350000
v 0.02488590 -0.02182435 0.01100000
v 0.02488590 -0.02182435 0.10036800
v 0.02142743 -0.01879136 0.10878720
v 0.02029967 -0.01780234 0.11440000
v 0.02029967 -0.01780234 0.12240000
v 0.01766824 -0.01549463 0.12240000
v 0.01766824 -0.01549463 0.11790000
v 0.01943716 -0.01491466 0.00000000
v 0.02442180 -0.01873950 0.00350000
v 0.02626000 -0.02015000 0.01100000
v 0.02626000 -0.02015000 0.10036800
v 0.02261057 -0.01734970 0.10878720
v 0.02142054 -0.01643656 0.11440000
v 0.02142054 -0.01643656 0.12240000
v 0.01864380 -0.01430589 0.12240000
v 0.01864380 -0.01430589 0.11790000
v 0.02037101 -0.01361147 0.00000000
v 0.02559513 -0.01710212 0.00350000
v 0.02752164 -0.01838937 0.01100000
v 0.02752164 -0.01838937 0.10036800
v 0.02369688 -0.01583375 0.10878720
v 0.02244968 -0.01500040 0.11440000
v 0.02244968 -0.01500040 0.12240000
v 0.01953954 -0.01305590 0.12240000
v 0.01953954 -0.01305590 0.11790000
v 0.02121762 -0.01225000 0.00000000
v 0.02665886 -0.01539150 0.00350000
v 0.02866544 -0.01655000 0.01100000
v 0.02866544 -0.01655000 0.10036800
v 0.02468172 -0.01425000 0.10878720
v 0.02338269 -0.01350000 0.11440000
v 0.02338269 -0.01350000 0.12240000
v 0.02035160 -0.01175000 0.12240000
v 0.02035160 -0.01175000 0.11790000
v 0.02197338 -0.01083607 0.00000000
v 0.02760843 -0.01361497 0.00350000
v 0.02968649 -0.01463976 0.01100000
v 0.02968649 -0.01463976 0.10036800
v 0.02556087 -0.01260523 0.10878720
v 0.02421556 -0.01194179 0.11440000
v 0.02421556 -0.01194179 0.12240000
v 0.02107651 -0.01039378 0.12240000
v 0.02107651 -0.01039378 0.11790000
v 0.02263505 -0.00937574 0.00000000
v 0.02843978 -0.01178014 0.00350000
v 0.03058041 -0.01266682 0.01100000
v 0.03058041 -0.01266682 0.10036800
v 0.02633057 -0.01090648 0.10878720
v 0.02494475 -0.01033245 0.11440000
v 0.02494475 -0.01033245 0.12240000
v 0.02171117 -0.00899306 0.12240000
v 0.02171117 -0.00899306 0.11790000
v 0.02319979 -0.00787527 0.00000000
v 0.02914935 -0.00989487 0.00350000
v 0.03134339 -0.01063965 0.01100000
v 0.03134339 -0.01063965 0.10036800
v 0.02698751 -0.00916102 0.10878720
v 0.02556711 -0.00867887 0.11440000
v 0.02556711 -0.00867887 0.12240000
v 0.02225286 -0.00755383 0.12240000
v 0.02225286 -0.00755383 0.11790000
v 0.02366518 -0.00634107 0.00000000
v 0.02973409 -0.00796723 0.00350000
v 0.03197214 -0.00856691 0.01100000
v 0.03197214 -0.00856691 0.10036800
v 0.02752889 -0.00737634 0.10878720
v 0.02608000 -0.00698811 0.11440000
v 0.02608000 -0.00698811 0.12240000
v 0.02269926 -0.00608225 0.12240000
v 0.02269926 -0.00608225 0.11790000
v 0.02402924 -0.00477971 0.00000000
v 0.03019151 -0.00600547 0.00350000
v 0.03246399 -0.00645749 0.01100000
v 0.03246399 -0.00645749 0.10036800
v 0.02795238 -0.00556007 0.10878720
v 0.02648120 -0.00526744 0.11440000
v 0.02648120 -0.00526744 0.12240000
v 0.02304845 -0.00458462 0.12240000
v 0.02304845 -0.00458462 0.11790000
v 0.02429040 -0.00319789 0.00000000
v 0.03051965 -0.00401799 0.00350000
v 0.03281682 -0.00432042 0.01100000
v 0.03281682 -0.00432042 0.10036800
v 0.02825618 -0.00372000 0.10878720
v 0.02676901 -0.00352421 0.11440000
v 0.02676901 -0.00352421 0.12240000
v 0.02329895 -0.00306737 0.12240000
v 0.02329895 -0.00306737 0.11790000
v 0.02444754 -0.00160238 0.00000000
v 0.03071709 -0.00201330 0.00350000
v 0.03302913 -0.00216484 0.01100000
v 0.03302913 -0.00216484 0.10036800
v 0.02843898 -0.00186399 0.10878720
v 0.02694219 -0.00176588 0.11440000
v 0.02694219 -0.00176588 0.12240000
v 0.02344968 -0.00153697 0.12240000
v 0.02344968 -0.00153697 0.11790000
f 2 1 12
f 2 12 3
f 3 12 13
f 3 13 4
f 4 13 14
f 4 14 5
f 5 14 15
f 5 15 6
f 6 15 16
f 6 16 7
f 7 16 17
f 7 17 8
f 8 17 18
f 8 18 9
f 9 18 19
f 9 19 10
f 10 19 20
f 10 20 11
f 12 1 21
f 12 21 13
f 13 21 22
f 13 22 14
f 14 22 23
f 14 23 15
f 15 23 24
f 15 24 16
f 16 24 25
f 16 25 17
f 17 25 26
f 17 26 18
f 18 26 27
f 18 27 19
f 19 27 28
f 19 28 20
f 20 28 29
f 20 29 11
f 21 1 30
f 21 30 22
f 22 30 31
f 22 31 23
f 23 31 32
f 23 32 24
f 24 32 33
f 24 33 25
f 25 33 34
f 25 34 26
f 26 34 35
f 26 35 27
f 27 35 36
f 27 36 28
f 28 36 37
f 28 37 29
f 29 37 38
f 29 38 11
f 30 1 39
f 30 39 31
f 31 39 40
f 31 40 32
f 32 40 41
f 32 41 33
f 33 41 42
f 33 42 34
f 34 42 43
f 34 43 35
f 35 43 44
f 35 44 36
f 36 44 45
f 36 45 37
f 37 45 46
f 37 46 38
f 38 46 47
f 38 47 11
f 39 1 48
f 39 48 40
f 40 48 49
f 40 49 41
f 41 49 50
f 41 50 42
f 42 50 51
f 42 51 43
f 43 51 52
f 43 52 44
f 44 52 53
f 44 53 45
f 45 53 54
f 45 54 46
f 46 54 55
f 46 55 47
f 47 55 56
f 47 56 11
f 48 1 57
f 48 57 49
f 49 57 58
f 49 58 50
f 50 58 59
f 50 59 51
f 51 59 60
f 51 60 52
f 52 60 61
f 52 61 53
f 53 61 62
f 53 62 54
f 54 62 63
f 54 63 55
f 55 63 64
f 55 64 56
f 56 64 65
f 56 65 11
f 57 1 66
f 57 66 58
f 58 66 67
f 58 67 59
f 59 67 68
f 59 68 60
f 60 68 69
f 60 69 61
f 61 69 70
f 61 70 62
f 62 70 71
f 62 71 63
f 63 71 72
f 63 72 64
f 64 72 73
f 64 73 65
f 65 73 74
f 65 74 11
f 66 1 75
f 66 75 67
f 67 75 76
f 67 76 68
f 68 76 77
f 68 77 69
f 69 77 78
f 69 78 70
f 70 78 79
f 70 79 71
f 71 79 80
f 71 80 72
f 72 80 81
f 72 81 73
f 73 81 82
f 73 82 74
f 74 82 83
f 74 83 11
f 75 1 84
f 75 84 76
f 76 84 85
f 76 85 77
f 77 85 86
f 77 86 78
f 78 86 87
f 78 87 79
f 79 87 88
f 79 88 80
f 80 88 89
f 80 89 81
f 81 89 90
f 81 90 82
f 82 90 91
f 82 91 83
f 83 91 92
f 83 92 11
f 84 1 93
f 84 93 85
f 85 93 94
f 85 94 86
f 86 94 95
f 86 95 87
f 87 95 96
f 87 96 88
f 88 96 97
f 88 97 89
f 89 97 98
f 89 98 90
f 90 98 99
f 90 99 91
f 91 99 100
f 91 100 92
f 92 100 101
f 92 101 11
f 93 1 102
f 93 102 94
f 94 102 103
f 94 103 95
f 95 103 104
f 95 104 96
f 96 104 105
f 96 105 97
f 97 105 106
f 97 106 98
f 98 106 107
f 98 107 99
f 99 107 108
f 99 108 100
f 100 108 109
f 100 109 101
f 101 109 110
f 101 110 11
f 102 1 111
f 102 111 103
f 103 111 112
f 103 112 104
f 104 112 113
f 104 113 105
f 105 113 114
f 105 114 106
f 106 114 115
f 106 115 107
f 107 115 116
f 107 116 108
f 108 116 117
f 108 117 109
f 109 117 118
f 109 118 110
f 110 118 119
f 110 119 11
f 111 1 120
f 111 120 112
f 112 120 121
f 112 121 113
f 113 121 122
f 113 122 114
f 114 122 123
f 114 123 115
f 115 123 124
f 115 124 116
f 116 124 125
f 116 125 117
f 117 125 126
f 117 126 118
f 118 126 127
f 118 127 119
f 119 127 128
f 119 128 11
f 120 1 129
f 120 129 121
f 121 129 130
f 121 130 122
f 122 130 131
f 122 131 123
f 123 131 132
f 123 132 124
f 124 132 133
f 124 133 125
f 125 133 134
f 125 134 126
f 126 134 135
f 126 135 127
f 127 135 136
f 127 136 128
f 128 136 137
f 128 137 11
f 129 1 138
f 129 138 130
f 130 138 139
f 130 139 131
f 131 139 140
f 131 140 132
f 132 140 141
f 132 141 133
f 133 141 142
f 133 142 134
f 134 142 143
f 134 143 135
f 135 143 144
f 135 144 136
f 136 144 145
f 136 145 137
f 137 145 146
f 137 146 11
f 138 1 147
f 138 147 139
f 139 147 148
f 139 148 140
f 140 148 149
f 140 149 141
f 141 149 150
f 141 150 142
f 142 150 151
f 142 151 143
f 143 151 152
f 143 152 144
f 144 152 153
f 144 153 145
f 145 153 154
f 145 154 146
f 146 154 155
f 146 155 11
f 147 1 156
f 147 156 148
f 148 156 157
f 148 157 149
f 149 157 158
f 149 158 150
f 150 158 159
f 150 159 151
f 151 159 160
f 151 160 152
f 152 160 161
f 152 161 153
f 153 161 162
f 153 162 154
f 154 162 163
f 154 163 155
f 155 163 164
f 155 164 11
f 156 1 165
f 156 165 157
f 157 165 166
f 157 166 158
f 158 166 167
f 158 167 159
f 159 167 168
f 159 168 160
f 160 168 169
f 160 169 161
f 161 169 170
f 161 170 162
f 162 170 171
f 162 171 163
f 163 171 172
f 163 172 164
f 164 172 173
f 164 173 11
f 165 1 174
f 165 174 166
f 166 174 175
f 166 175 167
f 167 175 176
f 167 176 168
f 168 176 177
f 168 177 169
f 169 177 178
f 169 178 170
f 170 178 179
f 170 179 171
f 171 179 180
f 171 180 172
f 172 180 181
f 172 181 173
f 173 181 182
f 173 182 11
f 174 1 183
f 174 183 175
f 175 183 184
f 175 184 176
f 176 184 185
f 176 185 177
f 177 185 186
f 177 186 178
f 178 186 187
f 178 187 179
f 179 187 188
f 179 188 180
f 180 188 189
f 180 189 181
f 181 189 190
f 181 190 182
f 182 190 191
f 182 191 11
f 183 1 192
f 183 192 184
f 184 192 193
f 184 193 185
f 185 193 194
f 185 194 186
f 186 194 195
f 186 195 187
f 187 195 196
f 187 196 188
f 188 196 197
f 188 197 189
f 189 197 198
f 189 198 190
f 190 198 199
f 190 199 191
f 191 199 200
f 191 200 11
f 192 1 201
f 192 201 193
f 193 201 202
f 193 202 194
f 194 202 203
f 194 203 195
f 195 203 204
f 195 204 196
f 196 204 205
f 196 205 197
f 197 205 206
f 197 206 198
f 198 206 207
f 198 207 199
f 199 207 208
f 199 208 200
f 200 208 209
f 200 209 11
f 201 1 210
f 201 210 202
f 202 210 211
f 202 211 203
f 203 211 212
f 203 212 204
f 204 212 213
f 204 213 205
f 205 213 214
f 205 214 206
f 206 214 215
f 206 215 207
f 207 215 216
f 207 216 208
f 208 216 217
f 208 217 209
f 209 217 218
f 209 218 11
f 210 1 219
f 210 219 211
f 211 219 220
f 211 220 212
f 212 220 221
f 212 221 213
f 213 221 222
f 213 222 214
f 214 222 223
f 214 223 215
f 215 223 224
f 215 224 216
f 216 224 225
f 216 225 217
f 217 225 226
f 217 226 218
f 218 226 227
f 218 227 11
f 219 1 228
f 219 228 220
f 220 228 229
f 220 229 221
f 221 229 230
f 221 230 222
f 222 230 231
f 222 231 223
f 223 231 232
f 223 232 224
f 224 232 233
f 224 233 225
f 225 233 234
f 225 234 226
f 226 234 235
f 226 235 227
f 227 235 236
f 227 236 11
f 228 1 237
f 228 237 229
f 229 237 238
f 229 238 230
f 230 238 239
f 230 239 231
f 231 239 240
f 231 240 232
f 232 240 241
f 232 241 233
f 233 241 242
f 233 242 234
f 234 242 243
f 234 243 235
f 235 243 244
f 235 244 236
f 236 244 245
f 236 245 11
f 237 1 246
f 237 246 238
f 238 246 247
f 238 247 239
f 239 247 248
f 239 248 240
f 240 248 249
f 240 249 241
f 241 249 250
f 241 250 242
f 242 250 251
f 242 251 243
f 243 251 252
f 243 252 244
f 244 252 253
f 244 253 245
f 245 253 254
f 245 254 11
f 246 1 255
f 246 255 247
f 247 255 256
f 247 256 248
f 248 256 257
f 248 257 249
f 249 257 258
f 249 258 250
f 250 258 259
f 250 259 251
f 251 259 260
f 251 260 252
f 252 260 261
f 252 261 253
f 253 261 262
f 253 262 254
f 254 262 263
f 254 263 11
f 255 1 264
f 255 264 256
f 256 264 265
f 256 265 257
f 257 265 266
f 257 266 258
f 258 266 267
f 258 267 259
f 259 267 268
f 259 268 260
f 260 268 269
f 260 269 261
f 261 269 270
f 261 270 262
f 262 270 271
f 262 271 263
f 263 271 272
f 263 272 11
f 264 1 273
f 264 273 265
f 265 273 274
f 265 274 266
f 266 274 275
f 266 275 267
f 267 275 276
f 267 276 268
f 268 276 277
f 268 277 269
f 269 277 278
f 269 278 270
f 270 278 279
f 270 279 271
f 271 279 280
f 271 280 272
f 272 280 281
f 272 281 11
f 273 1 282
f 273 282 274
f 274 282 283
f 274 283 275
f 275 283 284
f 275 284 276
f 276 284 285
f 276 285 277
f 277 285 286
f 277 286 278
f 278 286 287
f 278 287 279
f 279 287 288
f 279 288 280
f 280 288 289
f 280 289 281
f 281 289 290
f 281 290 11
f 282 1 291
f 282 291 283
f 283 291 292
f 283 292 284
f 284 292 293
f 284 293 285
f 285 293 294
f 285 294 286
f 286 294 295
f 286 295 287
f 287 295 296
f 287 296 288
f 288 296 297
f 288 297 289
f 289 297 298
f 289 298 290
f 290 298 299
f 290 299 11
f 291 1 300
f 291 300 292
f 292 300 301
f 292 301 293
f 293 301 302
f 293 302 294
f 294 302 303
f 294 303 295
f 295 303 304
f 295 304 296
f 296 304 305
f 296 305 297
f 297 305 306
f 297 306 298
f 298 306 307
f 298 307 299
f 299 307 308
f 299 308 11
f 300 1 309
f 300 309 301
f 301 309 310
f 301 310 302
f 302 310 311
f 302 311 303
f 303 311 312
f 303 312 304
f 304 312 313
f 304 313 305
f 305 313 314
f 305 314 306
f 306 314 315
f 306 315 307
f 307 315 316
f 307 316 308
f 308 316 317
f 308 317 11
f 309 1 318
f 309 318 310
f 310 318 319
f 310 319 311
f 311 319 320
f 311 320 312
f 312 320 321
f 312 321 313
f 313 321 322
f 313 322 314
f 314 322 323
f 314 323 315
f 315 323 324
f 315 324 316
f 316 324 325
f 316 325 317
f 317 325 326
f 317 326 11
f 318 1 327
f 318 327 319
f 319 327 328
f 319 328 320
f 320 328 329
f 320 329 321
f 321 329 330
f 321 330 322
f 322 330 331
f 322 331 323
f 323 331 332
f 323 332 324
f 324 332 333
f 324 333 325
f 325 333 334
f 325 334 326
f 326 334 335
f 326 335 11
f 327 1 336
f 327 336 328
f 328 336 337
f 328 337 329
f 329 337 338
f 329 338 330
f 330 338 339
f 330 339 331
f 331 339 340
f 331 340 332
f 332 340 341
f 332 341 333
f 333 341 342
f 333 342 334
f 334 342 343
f 334 343 335
f 335 343 344
f 335 344 11
f 336 1 345
f 336 345 337
f 337 345 346
f 337 346 338
f 338 346 347
f 338 347 339
f 339 347 348
f 339 348 340
f 340 348 349
f 340 349 341
f 341 349 350
f 341 350 342
f 342 350 351
f 342 351 343
f 343 351 352
f 343 352 344
f 344 352 353
f 344 353 11
f 345 1 354
f 345 354 346
f 346 354 355
f 346 355 347
f 347 355 356
f 347 356 348
f 348 356 357
f 348 357 349
f 349 357 358
f 349 358 350
f 350 358 359
f 350 359 351
f 351 359 360
f 351 360 352
f 352 360 361
f 352 361 353
f 353 361 362
f 353 362 11
f 354 1 363
f 354 363 355
f 355 363 364
f 355 364 356
f 356 364 365
f 356 365 357
f 357 365 366
f 357 366 358
f 358 366 367
f 358 367 359
f 359 367 368
f 359 368 360
f 360 368 369
f 360 369 361
f 361 369 370
f 361 370 362
f 362 370 371
f 362 371 11
f 363 1 372
f 363 372 364
f 364 372 373
f 364 373 365
f 365 373 374
f 365 374 366
f 366 374 375
f 366 375 367
f 367 375 376
f 367 376 368
f 368 376 377
f 368 377 369
f 369 377 378
f 369 378 370
f 370 378 379
f 370 379 371
f 371 379 380
f 371 380 11
f 372 1 381
f 372 381 373
f 373 381 382
f 373 382 374
f 374 382 383
f 374 383 375
f 375 383 384
f 375 384 376
f 376 384 385
f 376 385 377
f 377 385 386
f 377 386 378
f 378 386 387
f 378 387 379
f 379 387 388
f 379 388 380
f 380 388 389
f 380 389 11
f 381 1 390
f 381 390 382
f 382 390 391
f 382 391 383
f 383 391 392
f 383 392 384
f 384 392 393
f 384 393 385
f 385 393 394
f 385 394 386
f 386 394 395
f 386 395 387
f 387 395 396
f 387 396 388
f 388 396 397
f 388 397 389
f 389 397 398
f 389 398 11
f 390 1 399
f 390 399 391
f 391 399 400
f 391 400 392
f 392 400 401
f 392 401 393
f 393 401 402
f 393 402 394
f 394 402 403
f 394 403 395
f 395 403 404
f 395 404 396
f 396 404 405
f 396 405 397
f 397 405 406
f 397 406 398
f 398 406 407
f 398 407 11
f 399 1 408
f 399 408 400
f 400 408 409
f 400 409 401
f 401 409 410
f 401 410 402
f 402 410 411
f 402 411 403
f 403 411 412
f 403 412 404
f 404 412 413
f 404 413 405
f 405 413 414
f 405 414 406
f 406 414 415
f 406 415 407
f 407 415 416
f 407 416 11
f 408 1 417
f 408 417 409
f 409 417 418
f 409 418 410
f 410 418 419
f 410 419 411
f 411 419 420
f 411 420 412
f 412 420 421
f 412 421 413
f 413 421 422
f 413 422 414
f 414 422 423
f 414 423 415
f 415 423 424
f 415 424 416
f 416 424 425
f 416 425 11
f 417 1 426
f 417 426 418
f 418 426 427
f 418 427 419
f 419 427 428
f 419 428 420
f 420 428 429
f 420 429 421
f 421 429 430
f 421 430 422
f 422 430 431
f 422 431 423
f 423 431 432
f 423 432 424
f 424 432 433
f 424 433 425
f 425 433 434
f 425 434 11
f 426 1 435
f 426 435 427
f 427 435 436
f 427 436 428
f 428 436 437
f 428 437 429
f 429 437 438
f 429 438 430
f 430 438 439
f 430 439 431
f 431 439 440
f 431 440 432
f 432 440 441
f 432 441 433
f 433 441 442
f 433 442 434
f 434 442 443
f 434 443 11
f 435 1 444
f 435 444 436
f 436 444 445
f 436 445 437
f 437 445 446
f 437 446 438
f 438 446 447
f 438 447 439
f 439 447 448
f 439 448 440
f 440 448 449
f 440 449 441
f 441 449 450
f 441 450 442
f 442 450 451
f 442 451 443
f 443 451 452
f 443 452 11
f 444 1 453
f 444 453 445
f 445 453 454
f 445 454 446
f 446 454 455
f 446 455 447
f 447 455 456
f 447 456 448
f 448 456 457
f 448 457 449
f 449 457 458
f 449 458 450
f 450 458 459
f 450 459 451
f 451 459 460
f 451 460 452
f 452 460 461
f 452 461 11
f 453 1 462
f 453 462 454
f 454 462 463
f 454 463 455
f 455 463 464
f 455 464 456
f 456 464 465
f 456 465 457
f 457 465 466
f 457 466 458
f 458 466 467
f 458 467 459
f 459 467 468
f 459 468 460
f 460 468 469
f 460 469 461
f 461 469 470
f 461 470 11
f 462 1 471
f 462 471 463
f 463 471 472
f 463 472 464
f 464 472 473
f 464 473 465
f 465 473 474
f 465 474 466
f 466 474 475
f 466 475 467
f 467 475 476
f 467 476 468
f 468 476 477
f 468 477 469
f 469 477 478
f 469 478 470
f 470 478 479
f 470 479 11
f 471 1 480
f 471 480 472
f 472 480 481
f 472 481 473
f 473 481 482
f 473 482 474
f 474 482 483
f 474 483 475
f 475 483 484
f 475 484 476
f 476 484 485
f 476 485 477
f 477 485 486
f 477 486 478
f 478 486 487
f 478 487 479
f 479 487 488
f 479 488 11
f 480 1 489
f 480 489 481
f 481 489 490
f 481 490 482
f 482 490 491
f 482 491 483
f 483 491 492
f 483 492 484
f 484 492 493
f 484 493 485
f 485 493 494
f 485 494 486
f 486 494 495
f 486 495 487
f 487 495 496
f 487 496 488
f 488 496 497
f 488 497 11
f 489 1 498
f 489 498 490
f 490 498 499
f 490 499 491
f 491 499 500
f 491 500 492
f 492 500 501
f 492 501 493
f 493 501 502
f 493 502 494
f 494 502 503
f 494 503 495
f 495 503 504
f 495 504 496
f 496 504 505
f 496 505 497
f 497 505 506
f 497 506 11
f 498 1 507
f 498 507 499
f 499 507 508
f 499 508 500
f 500 508 509
f 500 509 501
f 501 509 510
f 501 510 502
f 502 510 511
f 502 511 503
f 503 511 512
f 503 512 504
f 504 512 513
f 504 513 505
f 505 513 514
f 505 514 506
f 506 514 515
f 506 515 11
f 507 1 516
f 507 516 508
f 508 516 517
f 508 517 509
f 509 517 518
f 509 518 510
f 510 518 519
f 510 519 511
f 511 519 520
f 511 520 512
f 512 520 521
f 512 521 513
f 513 521 522
f 513 522 514
f 514 522 523
f 514 523 515
f 515 523 524
f 515 524 11
f 516 1 525
f 516 525 517
f 517 525 526
f 517 526 518
f 518 526 527
f 518 527 519
f 519 527 528
f 519 528 520
f 520 528 529
f 520 529 521
f 521 529 530
f 521 530 522
f 522 530 531
f 522 531 523
f 523 531 532
f 523 532 524
f 524 532 533
f 524 533 11
f 525 1 534
f 525 534 526
f 526 534 535
f 526 535 527
f 527 535 536
f 527 536 528
f 528 536 537
f 528 537 529
f 529 537 538
f 529 538 530
f 530 538 539
f 530 539 531
f 531 539 540
f 531 540 532
f 532 540 541
f 532 541 533
f 533 541 542
f 533 542 11
f 534 1 543
f 534 543 535
f 535 543 544
f 535 544 536
f 536 544 545
f 536 545 537
f 537 545 546
f 537 546 538
f 538 546 547
f 538 547 539
f 539 547 548
f 539 548 540
f 540 548 549
f 540 549 541
f 541 549 550
f 541 550 542
f 542 550 551
f 542 551 11
f 543 1 552
f 543 552 544
f 544 552 553
f 544 553 545
f 545 553 554
f 545 554 546
f 546 554 555
f 546 555 547
f 547 555 556
f 547 556 548
f 548 556 557
f 548 557 549
f 549 557 558
f 549 558 550
f 550 558 559
f 550 559 551
f 551 559 560
f 551 560 11
f 552 1 561
f 552 561 553
f 553 561 562
f 553 562 554
f 554 562 563
f 554 563 555
f 555 563 564
f 555 564 556
f 556 564 565
f 556 565 557
f 557 565 566
f 557 566 558
f 558 566 567
f 558 567 559
f 559 567 568
f 559 568 560
f 560 568 569
f 560 569 11
f 561 1 570
f 561 570 562
f 562 570 571
f 562 571 563
f 563 571 572
f 563 572 564
f 564 572 573
f 564 573 565
f 565 573 574
f 565 574 566
f 566 574 575
f 566 575 567
f 567 575 576
f 567 576 568
f 568 576 577
f 568 577 569
f 569 577 578
f 569 578 11
f 570 1 579
f 570 579 571
f 571 579 580
f 571 580 572
f 572 580 581
f 572 581 573
f 573 581 582
f 573 582 574
f 574 582 583
f 574 583 575
f 575 583 584
f 575 584 576
f 576 584 585
f 576 585 577
f 577 585 586
f 577 586 578
f 578 586 587
f 578 587 11
f 579 1 588
f 579 588 580
f 580 588 589
f 580 589 581
f 581 589 590
f 581 590 582
f 582 590 591
f 582 591 583
f 583 591 592
f 583 592 584
f 584 592 593
f 584 593 585
f 585 593 594
f 585 594 586
f 586 594 595
f 586 595 587
f 587 595 596
f 587 596 11
f 588 1 597
f 588 597 589
f 589 597 598
f 589 598 590
f 590 598 599
f 590 599 591
f 591 599 600
f 591 600 592
f 592 600 601
f 592 601 593
f 593 601 602
f 593 602 594
f 594 602 603
f 594 603 595
f 595 603 604
f 595 604 596
f 596 604 605
f 596 605 11
f 597 1 606
f 597 606 598
f 598 606 607
f 598 607 599
f 599 607 608
f 599 608 600
f 600 608 609
f 600 609 601
f 601 609 610
f 601 610 602
f 602 610 611
f 602 611 603
f 603 611 612
f 603 612 604
f 604 612 613
f 604 613 605
f 605 613 614
f 605 614 11
f 606 1 615
f 606 615 607
f 607 615 616
f 607 616 608
f 608 616 617
f 608 617 609
f 609 617 618
f 609 618 610
f 610 618 619
f 610 619 611
f 611 619 620
f 611 620 612
f 612 620 621
f 612 621 613
f 613 621 622
f 613 622 614
f 614 622 623
f 614 623 11
f 615 1 624
f 615 624 616
f 616 624 625
f 616 625 617
f 617 625 626
f 617 626 618
f 618 626 627
f 618 627 619
f 619 627 628
f 619 628 620
f 620 628 629
f 620 629 621
f 621 629 630
f 621 630 622
f 622 630 631
f 622 631 623
f 623 631 632
f 623 632 11
f 624 1 633
f 624 633 625
f 625 633 634
f 625 634 626
f 626 634 635
f 626 635 627
f 627 635 636
f 627 636 628
f 628 636 637
f 628 637 629
f 629 637 638
f 629 638 630
f 630 638 639
f 630 639 631
f 631 639 640
f 631 640 632
f 632 640 641
f 632 641 11
f 633 1 642
f 633 642 634
f 634 642 643
f 634 643 635
f 635 643 644
f 635 644 636
f 636 644 645
f 636 645 637
f 637 645 646
f 637 646 638
f 638 646 647
f 638 647 639
f 639 647 648
f 639 648 640
f 640 648 649
f 640 649 641
f 641 649 650
f 641 650 11
f 642 1 651
f 642 651 643
f 643 651 652
f 643 652 644
f 644 652 653
f 644 653 645
f 645 653 654
f 645 654 646
f 646 654 655
f 646 655 647
f 647 655 656
f 647 656 648
f 648 656 657
f 648 657 649
f 649 657 658
f 649 658 650
f 650 658 659
f 650 659 11
f 651 1 660
f 651 660 652
f 652 660 661
f 652 661 653
f 653 661 662
f 653 662 654
f 654 662 663
f 654 663 655
f 655 663 664
f 655 664 656
f 656 664 665
f 656 665 657
f 657 665 666
f 657 666 658
f 658 666 667
f 658 667 659
f 659 667 668
f 659 668 11
f 660 1 669
f 660 669 661
f 661 669 670
f 661 670 662
f 662 670 671
f 662 671 663
f 663 671 672
f 663 672 664
f 664 672 673
f 664 673 665
f 665 673 674
f 665 674 666
f 666 674 675
f 666 675 667
f 667 675 676
f 667 676 668
f 668 676 677
f 668 677 11
f 669 1 678
f 669 678 670
f 670 678 679
f 670 679 671
f 671 679 680
f 671 680 672
f 672 680 681
f 672 681 673
f 673 681 682
f 673 682 674
f 674 682 683
f 674 683 675
f 675 683 684
f 675 684 676
f 676 684 685
f 676 685 677
f 677 685 686
f 677 686 11
f 678 1 687
f 678 687 679
f 679 687 688
f 679 688 680
f 680 688 689
f 680 689 681
f 681 689 690
f 681 690 682
f 682 690 691
f 682 691 683
f 683 691 692
f 683 692 684
f 684 692 693
f 684 693 685
f 685 693 694
f 685 694 686
f 686 694 695
f 686 695 11
f 687 1 696
f 687 696 688
f 688 696 697
f 688 697 689
f 689 697 698
f 689 698 690
f 690 698 699
f 690 699 691
f 691 699 700
f 691 700 692
f 692 700 701
f 692 701 693
f 693 701 702
f 693 702 694
f 694 702 703
f 694 703 695
f 695 703 704
f 695 704 11
f 696 1 705
f 696 705 697
f 697 705 706
f 697 706 698
f 698 706 707
f 698 707 699
f 699 707 708
f 699 708 700
f 700 708 709
f 700 709 701
f 701 709 710
f 701 710 702
f 702 710 711
f 702 711 703
f 703 711 712
f 703 712 704
f 704 712 713
f 704 713 11
f 705 1 714
f 705 714 706
f 706 714 715
f 706 715 707
f 707 715 716
f 707 716 708
f 708 716 717
f 708 717 709
f 709 717 718
f 709 718 710
f 710 718 719
f 710 719 711
f 711 719 720
f 711 720 712
f 712 720 721
f 712 721 713
f 713 721 722
f 713 722 11
f 714 1 723
f 714 723 715
f 715 723 724
f 715 724 716
f 716 724 725
f 716 725 717
f 717 725 726
f 717 726 718
f 718 726 727
f 718 727 719
f 719 727 728
f 719 728 720
f 720 728 729
f 720 729 721
f 721 729 730
f 721 730 722
f 722 730 731
f 722 731 11
f 723 1 732
f 723 732 724
f 724 732 733
f 724 733 725
f 725 733 734
f 725 734 726
f 726 734 735
f 726 735 727
f 727 735 736
f 727 736 728
f 728 736 737
f 728 737 729
f 729 737 738
f 729 738 730
f 730 738 739
f 730 739 731
f 731 739 740
f 731 740 11
f 732 1 741
f 732 741 733
f 733 741 742
f 733 742 734
f 734 742 743
f 734 743 735
f 735 743 744
f 735 744 736
f 736 744 745
f 736 745 737
f 737 745 746
f 737 746 738
f 738 746 747
f 738 747 739
f 739 747 748
f 739 748 740
f 740 748 749
f 740 749 11
f 741 1 750
f 741 750 742
f 742 750 751
f 742 751 743
f 743 751 752
f 743 752 744
f 744 752 753
f 744 753 745
f 745 753 754
f 745 754 746
f 746 754 755
f 746 755 747
f 747 755 756
f 747 756 748
f 748 756 757
f 748 757 749
f 749 757 758
f 749 758 11
f 750 1 759
f 750 759 751
f 751 759 760
f 751 760 752
f 752 760 761
f 752 761 753
f 753 761 762
f 753 762 754
f 754 762 763
f 754 763 755
f 755 763 764
f 755 764 756
f 756 764 765
f 756 765 757
f 757 765 766
f 757 766 758
f 758 766 767
f 758 767 11
f 759 1 768
f 759 768 760
f 760 768 769
f 760 769 761
f 761 769 770
f 761 770 762
f 762 770 771
f 762 771 763
f 763 771 772
f 763 772 764
f 764 772 773
f 764 773 765
f 765 773 774
f 765 774 766
f 766 774 775
f 766 775 767
f 767 775 776
f 767 776 11
f 768 1 777
f 768 777 769
f 769 777 778
f 769 778 770
f 770 778 779
f 770 779 771
f 771 779 780
f 771 780 772
f 772 780 781
f 772 781 773
f 773 781 782
f 773 782 774
f 774 782 783
f 774 783 775
f 775 783 784
f 775 784 776
f 776 784 785
f 776 785 11
f 777 1 786
f 777 786 778
f 778 786 787
f 778 787 779
f 779 787 788
f 779 788 780
f 780 788 789
f 780 789 781
f 781 789 790
f 781 790 782
f 782 790 791
f 782 791 783
f 783 791 792
f 783 792 784
f 784 792 793
f 784 793 785
f 785 793 794
f 785 794 11
f 786 1 795
f 786 795 787
f 787 795 796
f 787 796 788
f 788 796 797
f 788 797 789
f 789 797 798
f 789 798 790
f 790 798 799
f 790 799 791
f 791 799 800
f 791 800 792
f 792 800 801
f 792 801 793
f 793 801 802
f 793 802 794
f 794 802 803
f 794 803 11
f 795 1 804
f 795 804 796
f 796 804 805
f 796 805 797
f 797 805 806
f 797 806 798
f 798 806 807
f 798 807 799
f 799 807 808
f 799 808 800
f 800 808 809
f 800 809 801
f 801 809 810
f 801 810 802
f 802 810 811
f 802 811 803
f 803 811 812
f 803 812 11
f 804 1 813
f 804 813 805
f 805 813 814
f 805 814 806
f 806 814 815
f 806 815 807
f 807 815 816
f 807 816 808
f 808 816 817
f 808 817 809
f 809 817 818
f 809 818 810
f 810 818 819
f 810 819 811
f 811 819 820
f 811 820 812
f 812 820 821
f 812 821 11
f 813 1 822
f 813 822 814
f 814 822 823
f 814 823 815
f 815 823 824
f 815 824 816
f 816 824 825
f 816 825 817
f 817 825 826
f 817 826 818
f 818 826 827
f 818 827 819
f 819 827 828
f 819 828 820
f 820 828 829
f 820 829 821
f 821 829 830
f 821 830 11
f 822 1 831
f 822 831 823
f 823 831 832
f 823 832 824
f 824 832 833
f 824 833 825
f 825 833 834
f 825 834 826
f 826 834 835
f 826 835 827
f 827 835 836
f 827 836 828
f 828 836 837
f 828 837 829
f 829 837 838
f 829 838 830
f 830 838 839
f 830 839 11
f 831 1 840
f 831 840 832
f 832 840 841
f 832 841 833
f 833 841 842
f 833 842 834
f 834 842 843
f 834 843 835
f 835 843 844
f 835 844 836
f 836 844 845
f 836 845 837
f 837 845 846
f 837 846 838
f 838 846 847
f 838 847 839
f 839 847 848
f 839 848 11
f 840 1 849
f 840 849 841
f 841 849 850
f 841 850 842
f 842 850 851
f 842 851 843
f 843 851 852
f 843 852 844
f 844 852 853
f 844 853 845
f 845 853 854
f 845 854 846
f 846 854 855
f 846 855 847
f 847 855 856
f 847 856 848
f 848 856 857
f 848 857 11
f 849 1 858
f 849 858 850
f 850 858 859
f 850 859 851
f 851 859 860
f 851 860 852
f 852 860 861
f 852 861 853
f 853 861 862
f 853 862 854
f 854 862 863
f 854 863 855
f 855 863 864
f 855 864 856
f 856 864 865
f 856 865 857
f 857 865 866
f 857 866 11
f 858 1 2
f 858 2 859
f 859 2 3
f 859 3 860
f 860 3 4
f 860 4 861
f 861 4 5
f 861 5 862
f 862 5 6
f 862 6 863
f 863 6 7
f 863 7 864
f 864 7 8
f 864 8 865
f 865 8 9
f 865 9 866
f 866 9 10
f 866 10 11

